<?xml version="1.0" encoding="UTF-8" standalone="no"?>
<!-- Created with Inkscape (http://www.inkscape.org/) -->

<svg
   width="283.80267mm"
   height="129.96196mm"
   viewBox="0 0 283.80267 129.96196"
   version="1.1"
   id="svg1"
   xml:space="preserve"
   xmlns="http://www.w3.org/2000/svg"
   xmlns:svg="http://www.w3.org/2000/svg"><defs
     id="defs1"><style
       id="style1">
      .cls-1 {
        fill: #13d9a9;
      }

      .cls-2 {
        fill: #fff;
      }
    </style></defs><g
     id="layer1"
     transform="translate(36.538022,-169.48438)"><g
       id="g5"><g
         id="g4"
         transform="translate(-7.99389)"><g
           id="g3"><path
             class="cls-1"
             d="m -10.494257,223.63916 v -24.13529 l -15.845896,-8.19415 c -1.010708,-0.5027 -2.203979,0.20902 -2.203979,1.33086 v 34.20533 c 0,1.35467 0.756708,2.57175 1.973792,3.19088 l 28.8898534,14.89868 c 1.0107084,0.50271 2.1801667,-0.20902 2.1801667,-1.33085 v -10.07004 l -13.1339165,-6.77334 c -1.8600206,-1.37318 -1.8600206,-2.88131 -1.8600206,-3.12208 z"
             id="path1"
             style="fill:#000000;stroke-width:0.264583" /><path
             class="cls-1"
             d="M 14.125222,224.73189 V 186.66893 L -8.2876323,175.07754 c -1.0107083,-0.52917 -2.2039787,0.20637 -2.2039787,1.35466 v 23.09548 l 13.0651244,6.74952 c 1.1932708,0.61913 1.9288125,1.86002 1.9288125,3.21469 v 24.0665 l 22.4366661,11.54642 c 1.010709,0.5027 2.203979,-0.23019 2.203979,-1.35467 v -9.16781 l -13.133916,-6.77334 c -1.172104,-0.59795 -1.883833,-1.79122 -1.883833,-3.0771 z"
             id="path2"
             style="fill:#000000;stroke-width:0.264583" /><path
             class="cls-1"
             d="M 49.58468,186.82768 16.329201,169.65887 c -1.010709,-0.52917 -2.203979,0.20902 -2.203979,1.35467 v 15.65539 l 13.136562,6.7945 c 1.148292,0.59796 1.881187,1.76742 1.881187,3.05329 v 38.06032 l 20.140084,10.37695 c 1.010708,0.50271 2.227791,-0.23018 2.227791,-1.35466 v -53.62575 c 0,-1.33086 -0.759354,-2.54794 -1.928812,-3.1459 z"
             id="path3"
             style="fill:#000000;stroke-width:0.264583" /><path
             class="cls-2"
             d="m 117.24657,174.90291 v 5.41338 l 15.0204,8.09889 v -13.51227 z"
             id="path4"
             style="fill:#000000;stroke:#000000;stroke-width:0.264583" /><path
             class="cls-2"
             d="m 88.327617,202.13647 h 0.211666 c 0.724959,-1.7092 1.690688,-3.2967 2.926292,-4.75985 1.225021,-1.4605 2.627312,-2.70933 4.214812,-3.74915 1.5875,-1.02923 3.278188,-1.8362 5.080003,-2.4077 1.80181,-0.5715 3.67771,-0.85461 5.62768,-0.85461 1.01336,0 2.12725,0.17463 3.35228,0.53181 v 14.12346 c -0.72496,-0.13758 -1.5875,-0.26723 -2.60086,-0.37571 -1.01335,-0.11112 -1.98702,-0.1561 -2.92629,-0.1561 -2.81252,0 -5.191125,0.46831 -7.141104,1.38906 -1.94998,0.92869 -3.518959,2.19604 -4.706938,3.80471 -1.187979,1.60602 -2.034646,3.48192 -2.545292,5.61446 -0.502708,2.14312 -0.759354,4.45558 -0.759354,6.95589 v 23.01611 H 74.040117 v -54.13111 h 10.16 z"
             id="path5"
             style="fill:#000000;stroke-width:0.264583" /><path
             class="cls-2"
             d="m 117.24922,191.13774 v 54.12582 h 15.01775 v -54.12582 z"
             id="path6"
             style="fill:#000000;stroke-width:0.264583" /><path
             class="cls-2"
             d="m 139.78114,191.13774 h 14.72406 l 13.75039,36.59982 h 0.21167 l 13.75569,-36.59982 h 14.72406 l -20.33323,54.12582 H 160.1223 Z"
             id="path7"
             style="fill:#000000;stroke-width:0.264583" /></g><path
           class="cls-2"
           d="m 232.44086,212.65366 -5.34987,14.24252 h -0.17198 l -3.91848,-10.46956 -9.47473,-25.29681 h -14.72406 l 16.88306,44.76485 2.25954,5.98223 c 0.0582,0.13494 0.10584,0.26194 0.15082,0.39687 0.33337,0.95515 0.50006,1.95792 0.50006,3.0189 0,1.63777 -0.48419,3.13531 -1.4605,4.49263 -0.48419,0.67733 -1.09538,1.21179 -1.84415,1.60866 0,0.0265 -1.51606,0.70909 -2.64318,0.74613 -1.01865,0.0344 -2.0373,0.0344 -3.06123,-0.0132 0,0.0132 -1.33879,-0.082 -1.46844,-0.0926 -0.16404,-0.0132 -0.33338,-0.0344 -0.50006,-0.0503 l -4.53761,12.07294 c 1.01865,0.10054 2.63525,0.24871 3.64067,0.3175 0.55562,0.0423 1.10331,0.0767 1.66158,0.12171 1.55311,0.10054 3.11944,0.1561 4.70959,0.1561 4.27566,0 7.77875,-0.64029 10.53041,-1.89971 0.75142,-0.34395 1.37584,-0.71966 1.78594,-0.98425 0.74083,-0.47625 1.43933,-1.03981 2.09285,-1.6801 0.5133,-0.50535 1.68275,-1.64042 2.28071,-2.79135 0.96838,-1.47373 1.81504,-3.19088 2.54265,-5.15673 l 22.93408,-61.01556 h -14.72406 l -8.08831,21.52385 z"
           id="path8"
           style="fill:#000000;stroke-width:0.264583" /></g><path
         class="cls-2"
         d="m -10.811358,288.09348 v 6.75808 h -2.948204 v -16.41115 h 12.81457956 v 2.38146 H -10.811358 v 4.8947 h 8.8073636 v 2.38147 h -8.8073636 z m 18.8706422,7.08531 c -4.7735374,0 -7.62595309,-2.59961 -7.62595309,-6.75807 0,-4.15847 3.07592639,-6.67627 7.62595309,-6.67627 4.5500278,0 7.5620928,2.46327 7.5620928,6.67627 0,4.21299 -2.852415,6.75807 -7.5620928,6.75807 z m -0.031926,-11.24376 c -2.9801338,0 -4.8054672,1.72247 -4.8054672,4.45842 0,2.73595 1.6976132,4.59476 4.8054672,4.59476 3.1078568,0 4.8054698,-1.85881 4.8054698,-4.59476 0,-2.73595 -1.825333,-4.45842 -4.8054698,-4.45842 z m 12.7773308,-1.85881 v 3.94032 h 0.06386 c 0.606671,-2.95409 2.016914,-3.94032 4.422307,-3.94032 h 0.931293 v 2.62687 h -1.346384 c -2.820483,0 -4.065754,0.9044 -4.065754,3.39039 v 6.75808 h -2.788555 v -12.77534 h 2.788555 z m 9.994095,0 v 3.44494 h 0.03193 c 0.6386,-2.59962 2.628904,-3.77671 5.220556,-3.77671 3.42715,0 4.869321,1.6952 5.156702,3.99485 h 0.06376 c 0.51088,-2.73595 2.277682,-3.99485 5.188633,-3.99485 3.938022,0 5.284413,2.19058 5.284413,4.92198 v 8.18058 h -2.788562 v -7.57612 c 0,-1.74973 -0.89404,-3.36314 -3.586802,-3.36314 -2.692761,0 -4.097682,1.25892 -4.097682,3.36314 v 7.57612 H 38.48317 v -7.57612 c 0,-1.74973 -0.899359,-3.36314 -3.5868,-3.36314 -2.687443,0 -4.097686,1.25892 -4.097686,3.36314 v 7.57612 H 28.01012 v -12.77534 h 2.788556 z m 30.82842,13.0753 c -4.613893,0 -7.625954,-2.40873 -7.625954,-6.59446 0,-4.18573 3.044002,-6.81261 7.594035,-6.81261 4.550012,0 6.854304,2.43599 6.854304,5.93546 0,0.4363 -0.03198,0.95895 -0.06376,1.5316 H 56.821857 c 0.255421,2.51779 1.984991,3.8585 4.805473,3.8585 2.820462,0 3.746443,-1.17709 4.257343,-2.6814 l 2.469242,0.62716 c -0.771631,2.51782 -2.916283,4.13121 -6.726585,4.13121 z m -4.773532,-7.79428 h 8.998935 c -0.2235,-2.29965 -1.56989,-3.554 -4.358433,-3.554 -2.565061,0 -4.262672,1.17709 -4.645833,3.554 z m 16.76858,-5.28102 v 3.94032 h 0.06396 c 0.60666,-2.95409 2.016915,-3.94032 4.422317,-3.94032 h 0.93129 v 2.62687 h -1.346391 c -2.815151,0 -4.065746,0.9044 -4.065746,3.39039 v 6.75808 h -2.783251 v -12.77534 h 2.783251 z m 7.205548,-3.99485 h 2.783231 v 16.77019 H 80.8278 Z m 10.760407,16.5793 -6.338095,-12.58445 h 3.043982 l 2.112708,4.56748 c 0.670532,1.55886 1.761469,3.83124 2.623565,5.77185 h 0.064 c 0.798245,-1.96789 1.82532,-4.13118 2.463926,-5.74457 l 1.921139,-4.59476 h 2.980138 l -6.311501,12.93895 c -1.537968,3.09044 -3.331362,4.43114 -6.503092,4.43114 -0.93129,0 -1.601831,-0.0818 -2.240431,-0.16353 l 0.415101,-2.27236 c 0.6386,0.10909 1.25059,0.19086 1.889191,0.19086 1.793411,0 2.724709,-0.35447 3.874188,-2.54505 z m 23.335523,-6.01726 h -4.45423 v 6.20815 h -2.9482 v -16.41115 h 7.33325 c 4.25732,0 6.59887,1.6952 6.59887,5.09014 0,2.95409 -2.40007,5.11739 -6.535,5.11739 z m -0.35123,-7.96243 h -4.103 v 5.71731 h 4.16153 c 2.53314,0 3.81033,-0.95895 3.81033,-2.84501 0,-1.99517 -1.15482,-2.8723 -3.87418,-2.8723 z m 12.61768,14.44327 c -2.91628,0 -4.80548,-1.20437 -4.80548,-3.6131 0,-2.21785 1.69762,-3.91304 5.28442,-3.91304 h 4.8374 v -0.68172 c 0,-1.99516 -0.8621,-3.09042 -3.26751,-3.09042 -2.14994,0 -3.33136,0.84985 -3.75177,2.95409 l -2.65551,-0.32722 c 0.51088,-2.98139 2.52779,-4.64931 6.50308,-4.64931 3.97529,0 5.95496,1.80428 5.95496,5.09014 v 7.96243 h -2.78325 v -3.25405 h -0.032 c -0.67055,2.38145 -2.69277,3.52674 -5.28442,3.52674 z m 5.31635,-5.03106 v -0.59991 h -4.45424 c -1.95305,0 -2.91626,0.57263 -2.91626,1.72247 0,0.98622 0.73971,1.91334 2.91626,1.91334 2.7247,0 4.45424,-1.28615 4.45424,-3.0359 z m 10.22826,4.56748 -6.34344,-12.58445 h 3.044 l 2.11271,4.56748 c 0.67585,1.55886 1.76147,3.83124 2.62891,5.77185 h 0.0638 c 0.79825,-1.96789 1.82533,-4.13118 2.46925,-5.74457 l 1.92113,-4.59476 h 2.97481 l -6.31151,12.93895 c -1.53794,3.09044 -3.33136,4.43114 -6.50308,4.43114 -0.93129,0 -1.60181,-0.0818 -2.24041,-0.16353 l 0.41508,-2.27236 c 0.6386,0.10909 1.25059,0.19086 1.88919,0.19086 1.79342,0 2.7247,-0.35447 3.87418,-2.54505 z m 13.22967,-16.5793 v 7.43979 h 0.032 c 0.6386,-2.59962 2.6289,-3.77671 5.22057,-3.77671 3.90611,0 5.22056,2.19058 5.22056,4.92198 v 8.18058 h -2.78324 v -7.57612 c 0,-1.74973 -0.89937,-3.36314 -3.5868,-3.36314 -2.68745,0 -4.10301,1.25892 -4.10301,3.36314 v 7.57612 h -2.78323 v -16.77018 h 2.78323 z m 16.66747,3.99485 v 12.77534 h -2.78856 v -12.77534 z m 0.19148,-3.99485 v 2.02242 h -3.17172 v -2.02242 z m 17.91806,10.34388 c 0,4.18573 -2.24043,6.75807 -6.11993,6.75807 -3.29944,0 -4.99704,-1.58611 -5.6037,-4.13118 h -0.064 v 7.5761 h -2.78323 v -16.55202 h 2.78323 v 3.74943 h 0.064 c 0.63859,-2.54506 2.40006,-4.07665 5.57179,-4.07665 4.06574,0 6.14651,2.54507 6.14651,6.67625 z m -11.78749,-0.0863 v 0.19088 c 0,2.73594 1.79338,4.51296 4.61389,4.51296 2.82048,0 4.42229,-1.6952 4.42229,-4.62204 0,-2.92682 -1.37831,-4.51295 -4.42229,-4.51295 -2.81518,0 -4.61389,1.58613 -4.61389,4.43115 z m 28.79023,0.0863 c 0,4.18573 -2.24043,6.75807 -6.11992,6.75807 -3.29945,0 -4.99705,-1.58611 -5.60371,-4.13118 h -0.0638 v 7.5761 h -2.78325 v -16.55202 h 2.78325 v 3.74943 h 0.0638 c 0.63859,-2.54506 2.40006,-4.07665 5.57176,-4.07665 4.06577,0 6.14654,2.54507 6.14654,6.67625 z m -11.7875,-0.0863 v 0.19088 c 0,2.73594 1.7934,4.51296 4.61388,4.51296 2.82048,0 4.42231,-1.6952 4.42231,-4.62204 0,-2.92682 -1.37831,-4.51295 -4.42231,-4.51295 -2.81515,0 -4.61388,1.58613 -4.61388,4.43115 z m 20.97268,6.83988 c -4.77353,0 -7.62062,-2.59962 -7.62062,-6.75808 0,-4.15845 3.07593,-6.67627 7.62062,-6.67627 4.54473,0 7.55679,2.46329 7.55679,6.67627 0,4.21301 -2.8471,6.75808 -7.55679,6.75808 z m -0.032,-11.24375 c -2.98014,0 -4.80547,1.72247 -4.80547,4.45841 0,2.73594 1.69761,4.59476 4.80547,4.59476 3.10786,0 4.80548,-1.85882 4.80548,-4.59476 0,-2.73594 -1.82534,-4.45841 -4.80548,-4.45841 z"
         id="path9"
         style="fill:#000000;stroke-width:0.49179" /></g></g></svg>
