<?xml version="1.0" encoding="UTF-8" standalone="no"?>
<!-- Created with Inkscape (http://www.inkscape.org/) -->

<svg
   width="80.05497mm"
   height="75.781815mm"
   viewBox="0 0 80.05497 75.781815"
   version="1.1"
   id="svg1"
   xml:space="preserve"
   xmlns="http://www.w3.org/2000/svg"
   xmlns:svg="http://www.w3.org/2000/svg"><defs
     id="defs1"><style
       id="style1">
      .cls-1 {
        fill: #13d9a9;
      }

      .cls-2 {
        fill: #fff;
      }
    </style></defs><g
     id="layer1"
     transform="translate(-62.893698,-95.430552)"><g
       id="g1"
       transform="translate(94.691102,3.4433128)"><path
         class="cls-1"
         d="m -13.74753,146.14203 v -24.13529 l -15.845896,-8.19415 c -1.010708,-0.50271 -2.203979,0.20902 -2.203979,1.33086 v 34.20533 c 0,1.35467 0.756708,2.57175 1.973792,3.19087 l 28.88985343,14.89869 c 1.01070832,0.50271 2.18016667,-0.20902 2.18016667,-1.33085 v -10.07004 l -13.1339161,-6.77334 c -1.860021,-1.37318 -1.860021,-2.88131 -1.860021,-3.12208 z"
         id="path1"
         style="stroke-width:0.264583" /><path
         class="cls-1"
         d="M 10.871949,147.23476 V 109.1718 L -11.540905,97.580406 c -1.010709,-0.529167 -2.203979,0.206375 -2.203979,1.354666 v 23.095478 l 13.06512443,6.74952 c 1.19327082,0.61913 1.92881247,1.86002 1.92881247,3.21469 v 24.0665 l 22.4366661,11.54642 c 1.010709,0.5027 2.203979,-0.23019 2.203979,-1.35467 v -9.16781 l -13.133916,-6.77334 c -1.172104,-0.59796 -1.883833,-1.79123 -1.883833,-3.0771 z"
         id="path2"
         style="stroke-width:0.264583" /><path
         class="cls-1"
         d="M 46.331407,109.33055 13.075928,92.161739 c -1.010709,-0.529167 -2.203979,0.209021 -2.203979,1.354667 V 109.1718 l 13.136562,6.7945 c 1.148292,0.59796 1.881187,1.76742 1.881187,3.05329 v 38.06031 l 20.140084,10.37696 c 1.010708,0.50271 2.227791,-0.23018 2.227791,-1.35466 v -53.62575 c 0,-1.33086 -0.759354,-2.54794 -1.928812,-3.1459 z"
         id="path3"
         style="stroke-width:0.264583" /></g></g></svg>
